<svg width="1216" height="675" viewBox="0 0 1216 675" fill="none" xmlns="http://www.w3.org/2000/svg">
<path d="M512.316 651.547L370.322 542.845C361.097 535.783 355.687 524.829 355.687 513.212C355.687 491.941 373.439 474.972 394.688 475.93L418.664 477.01C468.881 479.274 499.633 422.681 470.412 381.779L466.081 375.716C453.1 357.545 431.573 347.471 409.304 349.147L220.744 363.334C197.095 365.113 174.847 375.24 157.974 391.906L97.4955 451.642C71.1349 477.679 26.9412 469.774 11.2416 436.213L7.85709 428.978C-9.82458 391.179 24.0533 349.707 64.6197 359.49C97.9819 367.536 129.288 340.205 125.817 306.062L115.923 208.731C115.38 203.387 113.826 198.195 111.343 193.432C93.8745 159.917 125.702 122.033 161.727 133.461L258.267 164.085C290.668 174.363 316.031 135.453 293.551 109.957C277.889 92.1941 285.08 64.2336 307.368 56.231L439.48 8.79482C467.359 -1.21535 498.241 1.64929 523.802 16.6167L682.43 109.499C699.555 119.526 719.275 124.232 739.082 123.016L1039.35 104.596C1062.16 103.196 1084.76 109.653 1103.39 122.892L1171.87 171.546C1220.61 206.184 1227.61 275.862 1186.73 319.503C1151.09 357.547 1092.01 361.324 1051.82 328.126L962.738 254.547C948.846 243.073 932.111 235.565 914.304 232.818L641.876 190.787C600.631 184.424 564.531 218.826 568.903 260.33C572.599 295.429 604.16 320.812 639.236 316.895L760.892 303.311C812.45 297.554 859.849 332.181 870.041 383.049L894.85 506.888C905.402 559.554 846.717 598.466 802.31 568.25C780.218 553.217 750.846 554.614 730.28 571.676L636.954 649.105C601.061 678.884 549.349 679.897 512.316 651.547Z" stroke="#082567" stroke-width="5"/>
</svg>
